<?xml version="1.0" encoding="UTF-8"?>
<svg xmlns="http://www.w3.org/2000/svg" xmlns:xlink="http://www.w3.org/1999/xlink" width="22pt" height="22pt" viewBox="0 0 22 22" version="1.1">
<g id="surface1">
<path style=" stroke:none;fill-rule:nonzero;fill:rgb(0%,53.333333%,80%);fill-opacity:1;" d="M 21.558594 4.398438 C 21.558594 5.128906 20.96875 5.71875 20.238281 5.71875 L 11 5.71875 C 10.269531 5.71875 9.679688 5.128906 9.679688 4.398438 C 9.679688 3.671875 10.269531 3.078125 11 3.078125 L 20.238281 3.078125 C 20.96875 3.078125 21.558594 3.671875 21.558594 4.398438 Z M 2.476562 6.652344 C 2.992188 7.167969 3.828125 7.167969 4.34375 6.652344 L 7.644531 3.351562 C 8.152344 2.835938 8.148438 2.007812 7.636719 1.492188 C 7.125 0.980469 6.292969 0.976562 5.777344 1.484375 L 3.410156 3.851562 L 2.691406 3.136719 C 2.175781 2.625 1.347656 2.628906 0.832031 3.144531 C 0.320312 3.65625 0.320312 4.488281 0.828125 5.003906 Z M 20.238281 10.011719 L 11 10.011719 C 10.269531 10.011719 9.679688 10.601562 9.679688 11.328125 C 9.679688 12.058594 10.269531 12.648438 11 12.648438 L 20.238281 12.648438 C 20.96875 12.648438 21.558594 12.058594 21.558594 11.328125 C 21.558594 10.601562 20.96875 10.011719 20.238281 10.011719 Z M 2.476562 13.582031 C 2.992188 14.097656 3.828125 14.097656 4.34375 13.582031 L 7.644531 10.28125 C 7.980469 9.949219 8.113281 9.460938 7.992188 9.003906 C 7.871094 8.546875 7.515625 8.1875 7.054688 8.066406 C 6.597656 7.945312 6.109375 8.078125 5.777344 8.414062 L 3.410156 10.78125 L 2.691406 10.0625 C 2.359375 9.726562 1.871094 9.589844 1.414062 9.714844 C 0.957031 9.835938 0.597656 10.191406 0.476562 10.652344 C 0.355469 11.109375 0.488281 11.597656 0.828125 11.929688 Z M 20.238281 16.941406 L 11 16.941406 C 10.269531 16.941406 9.679688 17.53125 9.679688 18.261719 C 9.679688 18.988281 10.269531 19.578125 11 19.578125 L 20.238281 19.578125 C 20.96875 19.578125 21.558594 18.988281 21.558594 18.261719 C 21.558594 17.53125 20.96875 16.941406 20.238281 16.941406 Z M 3.410156 20.898438 C 3.761719 20.898438 4.09375 20.761719 4.34375 20.511719 L 7.644531 17.210938 C 8.152344 16.695312 8.148438 15.867188 7.636719 15.355469 C 7.125 14.839844 6.292969 14.835938 5.777344 15.34375 L 3.410156 17.710938 L 2.691406 16.996094 C 2.175781 16.488281 1.347656 16.492188 0.832031 17.003906 C 0.320312 17.515625 0.320312 18.347656 0.828125 18.863281 L 2.476562 20.511719 C 2.722656 20.761719 3.058594 20.898438 3.410156 20.898438 Z M 3.410156 20.898438 "/>
</g>
</svg>
