<?xml version="1.0" encoding="iso-8859-1"?>
<!-- Generator: Adobe Illustrator 19.0.0, SVG Export Plug-In . SVG Version: 6.00 Build 0)  -->
<svg version="1.1" id="Capa_1" xmlns="http://www.w3.org/2000/svg" xmlns:xlink="http://www.w3.org/1999/xlink" x="0px" y="0px"
	 viewBox="0 0 512 512" style="enable-background:new 0 0 512 512;" xml:space="preserve">
<path style="fill:#FFFFFF;" d="M501.333,96v362.667c0,23.564-19.103,42.667-42.667,42.667H53.333
	c-23.564,0-42.667-19.103-42.667-42.667V96H501.333z"/>
<g>
	<path style="fill:#87D2F3;" d="M501.333,53.333V96H10.667V53.333c0-23.564,19.103-42.667,42.667-42.667h405.333
		C482.231,10.667,501.333,29.769,501.333,53.333z"/>
	<path style="fill:#87D2F3;" d="M266.667,170.667h106.667c5.891,0,10.667,4.776,10.667,10.667v21.333
		c0,5.891-4.776,10.667-10.667,10.667H266.667c-5.891,0-10.667-4.776-10.667-10.667v-21.333
		C256,175.442,260.776,170.667,266.667,170.667z"/>
</g>
<g>
	<path style="fill:#2170A6;" d="M458.667,0H53.333C23.893,0.035,0.035,23.893,0,53.333v405.333
		C0.035,488.107,23.893,511.965,53.333,512h405.333c29.441-0.035,53.298-23.893,53.333-53.333V53.333
		C511.965,23.893,488.107,0.035,458.667,0z M490.667,458.667c0,17.673-14.327,32-32,32H53.333c-17.673,0-32-14.327-32-32V53.333
		c0-17.673,14.327-32,32-32h405.333c17.673,0,32,14.327,32,32V458.667z"/>
	<path style="fill:#2170A6;" d="M42.667,85.333h426.667v21.333H42.667V85.333z"/>
	<path style="fill:#2170A6;" d="M53.333,42.667h21.333V64H53.333V42.667z"/>
	<path style="fill:#2170A6;" d="M96,42.667h21.333V64H96V42.667z"/>
	<path style="fill:#2170A6;" d="M437.333,42.667h21.333V64h-21.333V42.667z"/>
	<path style="fill:#2170A6;" d="M170.667,128H192v341.333h-21.333V128z"/>
	<path style="fill:#2170A6;" d="M394.667,202.667v-21.333c0-11.782-9.551-21.333-21.333-21.333H266.667
		c-11.782,0-21.333,9.551-21.333,21.333v21.333c0,11.782,9.551,21.333,21.333,21.333h106.667
		C385.115,224,394.667,214.449,394.667,202.667z M266.667,181.333h106.667v21.333H266.667V181.333z"/>
	<path style="fill:#2170A6;" d="M245.333,245.333h21.333v21.333h-21.333V245.333z"/>
	<path style="fill:#2170A6;" d="M405.333,288h21.333v21.333h-21.333V288z"/>
	<path style="fill:#2170A6;" d="M288,245.333h21.333v21.333H288V245.333z"/>
	<path style="fill:#2170A6;" d="M330.667,330.667H352V352h-21.333V330.667z"/>
	<path style="fill:#2170A6;" d="M373.333,330.667H448V352h-74.667V330.667z"/>
	<path style="fill:#2170A6;" d="M330.667,245.333H448v21.333H330.667V245.333z"/>
	<path style="fill:#2170A6;" d="M245.333,288H384v21.333H245.333V288z"/>
	<path style="fill:#2170A6;" d="M266.667,373.333H288v21.333h-21.333V373.333z"/>
	<path style="fill:#2170A6;" d="M384,416h42.667v21.333H384V416z"/>
	<path style="fill:#2170A6;" d="M245.333,416h117.333v21.333H245.333V416z"/>
	<path style="fill:#2170A6;" d="M309.333,373.333H448v21.333H309.333V373.333z"/>
	<path style="fill:#2170A6;" d="M245.333,330.667h64V352h-64V330.667z"/>
	<path style="fill:#2170A6;" d="M64,181.333h53.333v21.333H64V181.333z"/>
	<path style="fill:#2170A6;" d="M64,234.667h53.333V256H64V234.667z"/>
	<path style="fill:#2170A6;" d="M64,288h53.333v21.333H64V288z"/>
	<path style="fill:#2170A6;" d="M64,341.333h53.333v21.333H64V341.333z"/>
	<path style="fill:#2170A6;" d="M64,394.667h53.333V416H64V394.667z"/>
</g>
<g>
</g>
<g>
</g>
<g>
</g>
<g>
</g>
<g>
</g>
<g>
</g>
<g>
</g>
<g>
</g>
<g>
</g>
<g>
</g>
<g>
</g>
<g>
</g>
<g>
</g>
<g>
</g>
<g>
</g>
</svg>
