<svg xmlns="http://www.w3.org/2000/svg" xmlns:xlink="http://www.w3.org/1999/xlink" xmlns:lucid="lucid" width="646.07" height="325.87"><g transform="translate(-559.7623456790124 -180)" lucid:page-tab-id="7ezayB~FQlW7"><path d="M810 208c0-4.42 3.58-8 8-8h124c4.42 0 8 3.58 8 8v83.68c0 4.42-3.58 8-8 8H818c-4.42 0-8-3.58-8-8z" stroke="#000" stroke-opacity="0" stroke-width="2" fill="#4397ff"/><use xlink:href="#a" transform="matrix(1,0,0,1,815,205) translate(17 36.9)"/><use xlink:href="#b" transform="matrix(1,0,0,1,815,205) translate(58 36.9)"/><use xlink:href="#c" transform="matrix(1,0,0,1,815,205) translate(50.525 58.5)"/><path d="M921.6 250.74c5.1 2.34 8.4 7.74 8.4 13.92 0 7.08-4.4 13.14-10.5 14.7l-2 .48h-72.3c-8.4 0-15.2-7.62-15.2-16.8s6.8-16.8 15.2-16.8c.7 0 1.1 0 1.8.18 2.5-4.44 6.8-6.96 11.6-6.96 1.3 0 2.5.18 3.8.6v-.6c0-10.92 7.9-19.62 17.8-19.62 6.8 0 13.1 4.56 16 11.4 2.5-1.62 5.4-2.52 8.4-2.52 9.5 0 17.2 8.52 17.2 18.96.1.96 0 1.92-.2 3.06z" stroke="#000" stroke-opacity="0" fill="#fff" fill-opacity=".3"/><path d="M1112 415.87c15.46 0 28 15.67 28 35s-12.54 35-28 35h-84c-15.46 0-28-15.67-28-35s12.54-35 28-35z" stroke="#000" stroke-opacity="0" stroke-width="2" fill="#ff9e56"/><use xlink:href="#d" transform="matrix(1,0,0,1,1008,423.86859563019345) translate(47.04938271604938 29.319444444444446)"/><path d="M732 415c15.46 0 28 15.67 28 35s-12.54 35-28 35h-84c-15.46 0-28-15.67-28-35s12.54-35 28-35z" stroke="#000" stroke-opacity="0" stroke-width="2" fill="#6ecf6c"/><use xlink:href="#e" transform="matrix(1,0,0,1,625,420) translate(33.32716049382716 34.94444444444444)"/><use xlink:href="#f" transform="matrix(1,0,0,1,625,420) translate(69.01851851851852 34.94444444444444)"/><path d="M712.9 357.84h-10.87l-3 .4-2.77 1.14-2.4 1.83-1.82 2.4-1.14 2.76-.4 3v29.26h-1v-29.3l.42-3.22 1.24-3 2-2.6 2.6-2 3-1.24 3.2-.42h10.94zm167.6-12.47l-.42 3.2-1.24 3-2 2.6-2.6 2-3 1.25-3.2.42H857.1v-1h10.87l3-.4 2.77-1.14 2.4-1.83 1.82-2.4 1.14-2.75.4-3v-45.14h1z" fill="#666"/><path d="M880.5 300.2h-1v-.52h1zM690 413.38l-4.64-14.26h9.28z" fill="#666"/><path d="M690 415l-5.32-16.38h10.64zm-3.95-15.38l3.95 12.14 3.95-12.14z" fill="#666"/><use xlink:href="#g" transform="matrix(1,0,0,1,712.9043209876543,348.0066666666667) translate(0.0049999999999954525 12.444444444444446)"/><use xlink:href="#h" transform="matrix(1,0,0,1,712.9043209876543,348.0066666666667) translate(43.992654320987654 12.444444444444446)"/><use xlink:href="#i" transform="matrix(1,0,0,1,712.9043209876543,348.0066666666667) translate(58.684012345679015 12.444444444444446)"/><path d="M580.5 437.97l.4 3 1.14 2.77 1.83 2.4 2.4 1.82 2.75 1.14 3 .4h27.48v1h-27.53l-3.2-.42-3-1.24-2.6-2-2-2.6-1.25-3-.42-3.2v-101.7h1zm213.12-187.63h-201.6l-3 .4-2.76 1.14-2.4 1.83-1.82 2.4-1.14 2.76-.4 3v55.8h-1v-55.85l.42-3.2 1.24-3 2-2.6 2.6-2 3-1.24 3.2-.42h201.66z" fill="#666"/><path d="M620 450l.04.5h-.55v-1h.54zM808.38 249.84l-14.26 4.64v-9.28z" fill="#666"/><path d="M810 249.84l-16.38 5.32v-10.64zm-15.38 3.95l12.14-3.96-12.14-3.95z" fill="#666"/><use xlink:href="#j" transform="matrix(1,0,0,1,565.7623456790124,317.6653411769394) translate(0.005000000000000782 12.444444444444446)"/><path d="M1180.5 438.9l-.42 3.2-1.24 3-2 2.6-2.6 2-3 1.25-3.2.42h-27.54v-1h27.47l3-.4 2.77-1.14 2.4-1.83 1.82-2.4 1.14-2.75.4-3v-110.3h1zm-9.26-189.14l3 1.24 2.6 2 2 2.6 1.24 3 .42 3.2v48.08h-1v-48l-.4-3.02-1.14-2.76-1.83-2.4-2.4-1.82-2.75-1.14-3-.4h-201.6v-1h201.65z" fill="#666"/><path d="M1140.5 451.37h-.54l.04-.5-.04-.5h.55zM965.88 254.48l-14.26-4.64 14.26-4.64z" fill="#666"/><path d="M966.38 255.16L950 249.84l16.38-5.32zm-13.14-5.32l12.14 3.95v-7.9z" fill="#666"/><use xlink:href="#k" transform="matrix(1,0,0,1,1160.1666666666667,309.8780558236876) translate(0.004999999999999005 12.444444444444446)"/><path d="M1058.03 357.27l3.2.43 3 1.24 2.6 2 2 2.6 1.25 3 .42 3.2v29.74h-1V369.8l-.4-3-1.14-2.76-1.83-2.4-2.4-1.83-2.75-1.13-3-.4h-31.17v-1zm-177.13-8.5l1.14 2.74 1.83 2.4 2.4 1.84 2.75 1.14 3 .4h31.17v1h-31.23l-3.2-.43-3-1.24-2.6-1.98-2-2.6-1.25-3-.42-3.2v-45.64h1v45.56z" fill="#666"/><path d="M880.5 300.2h-1v-.52h1zM1070 414.25l-4.64-14.27h9.28z" fill="#666"/><path d="M1070 415.87l-5.32-16.4h10.64zm-3.95-15.4l3.95 12.16 3.95-12.15z" fill="#666"/><g><use xlink:href="#l" transform="matrix(1,0,0,1,923.1913580246913,348.4409644817634) translate(0.005000000000002558 12.444444444444446)"/><use xlink:href="#h" transform="matrix(1,0,0,1,923.1913580246913,348.4409644817634) translate(32.8012962962963 12.444444444444446)"/><use xlink:href="#m" transform="matrix(1,0,0,1,923.1913580246913,348.4409644817634) translate(47.49265432098766 12.444444444444446)"/></g><defs><path fill="#fff" d="M147 0H94L2-248h55l64 206c17-72 42-137 63-206h54" id="n"/><path fill="#fff" d="M133-34C117-15 103 5 69 4 32 3 11-16 11-54c-1-60 55-63 116-61 1-26-3-47-28-47-18 1-26 9-28 27l-52-2c7-38 36-58 82-57s74 22 75 68l1 82c-1 14 12 18 25 15v27c-30 8-71 5-69-32zm-48 3c29 0 43-24 42-57-32 0-66-3-65 30 0 17 8 27 23 27" id="o"/><path fill="#fff" d="M25 0v-261h50V0H25" id="p"/><path fill="#fff" d="M185-48c-13 30-37 53-82 52C43 2 14-33 14-96s30-98 90-98c62 0 83 45 84 108H66c0 31 8 55 39 56 18 0 30-7 34-22zm-45-69c5-46-57-63-70-21-2 6-4 13-4 21h74" id="q"/><g id="a"><use transform="matrix(0.05,0,0,0.05,0,0)" xlink:href="#n"/><use transform="matrix(0.05,0,0,0.05,11,0)" xlink:href="#o"/><use transform="matrix(0.05,0,0,0.05,21,0)" xlink:href="#p"/><use transform="matrix(0.05,0,0,0.05,26,0)" xlink:href="#q"/></g><path fill="#fff" d="M169-182c-1-43-94-46-97-3 18 66 151 10 154 114 3 95-165 93-204 36-6-8-10-19-12-30l50-8c3 46 112 56 116 5-17-69-150-10-154-114-4-87 153-88 188-35 5 8 8 18 10 28" id="r"/><path fill="#fff" d="M135-150c-39-12-60 13-60 57V0H25l-1-190h47c2 13-1 29 3 40 6-28 27-53 61-41v41" id="s"/><path fill="#fff" d="M128 0H69L1-190h53L99-40l48-150h52" id="t"/><g id="b"><use transform="matrix(0.05,0,0,0.05,0,0)" xlink:href="#r"/><use transform="matrix(0.05,0,0,0.05,12,0)" xlink:href="#q"/><use transform="matrix(0.05,0,0,0.05,22,0)" xlink:href="#s"/><use transform="matrix(0.05,0,0,0.05,29,0)" xlink:href="#t"/><use transform="matrix(0.05,0,0,0.05,39,0)" xlink:href="#q"/><use transform="matrix(0.05,0,0,0.05,49,0)" xlink:href="#s"/></g><path fill="#fff" d="M199 0l-22-63H83L61 0H9l90-248h61L250 0h-51zm-33-102l-36-108c-10 38-24 72-36 108h72" id="u"/><path fill="#fff" d="M24-248c93 1 206-16 204 79-1 75-69 88-152 82V0H24v-248zm52 121c47 0 100 7 100-41 0-47-54-39-100-39v80" id="v"/><path fill="#fff" d="M24 0v-248h52V0H24" id="w"/><g id="c"><use transform="matrix(0.05,0,0,0.05,0,0)" xlink:href="#u"/><use transform="matrix(0.05,0,0,0.05,12.950000000000001,0)" xlink:href="#v"/><use transform="matrix(0.05,0,0,0.05,24.950000000000003,0)" xlink:href="#w"/></g><path fill="#fff" d="M137 0h-34L2-248h35l83 218 83-218h36" id="x"/><path fill="#fff" d="M141-36C126-15 110 5 73 4 37 3 15-17 15-53c-1-64 63-63 125-63 3-35-9-54-41-54-24 1-41 7-42 31l-33-3c5-37 33-52 76-52 45 0 72 20 72 64v82c-1 20 7 32 28 27v20c-31 9-61-2-59-35zM48-53c0 20 12 33 32 33 41-3 63-29 60-74-43 2-92-5-92 41" id="y"/><path fill="#fff" d="M24 0v-261h32V0H24" id="z"/><path fill="#fff" d="M100-194c63 0 86 42 84 106H49c0 40 14 67 53 68 26 1 43-12 49-29l28 8c-11 28-37 45-77 45C44 4 14-33 15-96c1-61 26-98 85-98zm52 81c6-60-76-77-97-28-3 7-6 17-6 28h103" id="A"/><g id="d"><use transform="matrix(0.04320987654320988,0,0,0.04320987654320988,0,0)" xlink:href="#x"/><use transform="matrix(0.04320987654320988,0,0,0.04320987654320988,9.203703703703706,0)" xlink:href="#y"/><use transform="matrix(0.04320987654320988,0,0,0.04320987654320988,17.845679012345684,0)" xlink:href="#z"/><use transform="matrix(0.04320987654320988,0,0,0.04320987654320988,21.259259259259267,0)" xlink:href="#A"/></g><path fill="#fff" d="M137-103V0h-34v-103L8-248h37l75 118 75-118h37" id="B"/><path fill="#fff" d="M100-194c62-1 85 37 85 99 1 63-27 99-86 99S16-35 15-95c0-66 28-99 85-99zM99-20c44 1 53-31 53-75 0-43-8-75-51-75s-53 32-53 75 10 74 51 75" id="C"/><path fill="#fff" d="M84 4C-5 8 30-112 23-190h32v120c0 31 7 50 39 49 72-2 45-101 50-169h31l1 190h-30c-1-10 1-25-2-33-11 22-28 36-60 37" id="D"/><path fill="#fff" d="M114-163C36-179 61-72 57 0H25l-1-190h30c1 12-1 29 2 39 6-27 23-49 58-41v29" id="E"/><g id="e"><use transform="matrix(0.04320987654320988,0,0,0.04320987654320988,0,0)" xlink:href="#B"/><use transform="matrix(0.04320987654320988,0,0,0.04320987654320988,8.944444444444446,0)" xlink:href="#C"/><use transform="matrix(0.04320987654320988,0,0,0.04320987654320988,17.586419753086425,0)" xlink:href="#D"/><use transform="matrix(0.04320987654320988,0,0,0.04320987654320988,26.2283950617284,0)" xlink:href="#E"/></g><path fill="#fff" d="M205 0l-28-72H64L36 0H1l101-248h38L239 0h-34zm-38-99l-47-123c-12 45-31 82-46 123h93" id="F"/><path fill="#fff" d="M115-194c55 1 70 41 70 98S169 2 115 4C84 4 66-9 55-30l1 105H24l-1-265h31l2 30c10-21 28-34 59-34zm-8 174c40 0 45-34 45-75s-6-73-45-74c-42 0-51 32-51 76 0 43 10 73 51 73" id="G"/><g id="f"><use transform="matrix(0.04320987654320988,0,0,0.04320987654320988,0,0)" xlink:href="#F"/><use transform="matrix(0.04320987654320988,0,0,0.04320987654320988,10.370370370370372,0)" xlink:href="#G"/><use transform="matrix(0.04320987654320988,0,0,0.04320987654320988,19.01234567901235,0)" xlink:href="#G"/></g><path d="M205 0l-28-72H64L36 0H1l101-248h38L239 0h-34zm-38-99l-47-123c-12 45-31 82-46 123h93" id="H"/><path d="M24 0v-261h32V0H24" id="I"/><path d="M100-194c63 0 86 42 84 106H49c0 40 14 67 53 68 26 1 43-12 49-29l28 8c-11 28-37 45-77 45C44 4 14-33 15-96c1-61 26-98 85-98zm52 81c6-60-76-77-97-28-3 7-6 17-6 28h103" id="J"/><path d="M114-163C36-179 61-72 57 0H25l-1-190h30c1 12-1 29 2 39 6-27 23-49 58-41v29" id="K"/><path d="M59-47c-2 24 18 29 38 22v24C64 9 27 4 27-40v-127H5v-23h24l9-43h21v43h35v23H59v120" id="L"/><path d="M135-143c-3-34-86-38-87 0 15 53 115 12 119 90S17 21 10-45l28-5c4 36 97 45 98 0-10-56-113-15-118-90-4-57 82-63 122-42 12 7 21 19 24 35" id="M"/><g id="g"><use transform="matrix(0.04320987654320988,0,0,0.04320987654320988,0,0)" xlink:href="#H"/><use transform="matrix(0.04320987654320988,0,0,0.04320987654320988,10.370370370370372,0)" xlink:href="#I"/><use transform="matrix(0.04320987654320988,0,0,0.04320987654320988,13.783950617283953,0)" xlink:href="#J"/><use transform="matrix(0.04320987654320988,0,0,0.04320987654320988,22.425925925925934,0)" xlink:href="#K"/><use transform="matrix(0.04320987654320988,0,0,0.04320987654320988,27.567901234567906,0)" xlink:href="#L"/><use transform="matrix(0.04320987654320988,0,0,0.04320987654320988,31.888888888888893,0)" xlink:href="#M"/></g><path d="M234-2c-28 10-62 0-77-18C117 19 8 12 13-65c3-43 29-61 60-76-25-40-17-114 47-108 35 3 59 15 59 50 0 44-40 53-71 69 14 26 32 50 51 72 14-21 24-43 30-72l26 8c-9 33-21 57-38 82 13 13 33 22 57 15v23zM97-151c25-10 52-18 56-48-1-18-13-29-33-29-42 0-39 50-23 77zM42-66c-3 51 71 58 98 28-20-24-41-51-56-80-23 10-40 24-42 52" id="N"/><use transform="matrix(0.04320987654320988,0,0,0.04320987654320988,0,0)" xlink:href="#N" id="h"/><path d="M185-189c-5-48-123-54-124 2 14 75 158 14 163 119 3 78-121 87-175 55-17-10-28-26-33-46l33-7c5 56 141 63 141-1 0-78-155-14-162-118-5-82 145-84 179-34 5 7 8 16 11 25" id="O"/><path d="M84 4C-5 8 30-112 23-190h32v120c0 31 7 50 39 49 72-2 45-101 50-169h31l1 190h-30c-1-10 1-25-2-33-11 22-28 36-60 37" id="P"/><path d="M177-190C167-65 218 103 67 71c-23-6-38-20-44-43l32-5c15 47 100 32 89-28v-30C133-14 115 1 83 1 29 1 15-40 15-95c0-56 16-97 71-98 29-1 48 16 59 35 1-10 0-23 2-32h30zM94-22c36 0 50-32 50-73 0-42-14-75-50-75-39 0-46 34-46 75s6 73 46 73" id="Q"/><path d="M24-231v-30h32v30H24zM24 0v-190h32V0H24" id="R"/><path d="M100-194c62-1 85 37 85 99 1 63-27 99-86 99S16-35 15-95c0-66 28-99 85-99zM99-20c44 1 53-31 53-75 0-43-8-75-51-75s-53 32-53 75 10 74 51 75" id="S"/><path d="M117-194c89-4 53 116 60 194h-32v-121c0-31-8-49-39-48C34-167 62-67 57 0H25l-1-190h30c1 10-1 24 2 32 11-22 29-35 61-36" id="T"/><g id="i"><use transform="matrix(0.04320987654320988,0,0,0.04320987654320988,0,0)" xlink:href="#O"/><use transform="matrix(0.04320987654320988,0,0,0.04320987654320988,10.370370370370372,0)" xlink:href="#P"/><use transform="matrix(0.04320987654320988,0,0,0.04320987654320988,19.01234567901235,0)" xlink:href="#Q"/><use transform="matrix(0.04320987654320988,0,0,0.04320987654320988,27.654320987654323,0)" xlink:href="#Q"/><use transform="matrix(0.04320987654320988,0,0,0.04320987654320988,36.2962962962963,0)" xlink:href="#J"/><use transform="matrix(0.04320987654320988,0,0,0.04320987654320988,44.93827160493828,0)" xlink:href="#M"/><use transform="matrix(0.04320987654320988,0,0,0.04320987654320988,52.71604938271606,0)" xlink:href="#L"/><use transform="matrix(0.04320987654320988,0,0,0.04320987654320988,57.03703703703703,0)" xlink:href="#R"/><use transform="matrix(0.04320987654320988,0,0,0.04320987654320988,60.45061728395062,0)" xlink:href="#S"/><use transform="matrix(0.04320987654320988,0,0,0.04320987654320988,69.0925925925926,0)" xlink:href="#T"/><use transform="matrix(0.04320987654320988,0,0,0.04320987654320988,77.73456790123457,0)" xlink:href="#M"/></g><path d="M127-220V0H93v-220H8v-28h204v28h-85" id="U"/><path d="M141 0L90-78 38 0H4l68-98-65-92h35l48 74 47-74h35l-64 92 68 98h-35" id="V"/><g id="j"><use transform="matrix(0.04320987654320988,0,0,0.04320987654320988,0,0)" xlink:href="#U"/><use transform="matrix(0.04320987654320988,0,0,0.04320987654320988,7.734567901234567,0)" xlink:href="#J"/><use transform="matrix(0.04320987654320988,0,0,0.04320987654320988,16.376543209876544,0)" xlink:href="#V"/><use transform="matrix(0.04320987654320988,0,0,0.04320987654320988,24.154320987654323,0)" xlink:href="#L"/></g><g id="k"><use transform="matrix(0.04320987654320988,0,0,0.04320987654320988,0,0)" xlink:href="#H"/><use transform="matrix(0.04320987654320988,0,0,0.04320987654320988,10.370370370370372,0)" xlink:href="#I"/><use transform="matrix(0.04320987654320988,0,0,0.04320987654320988,13.783950617283953,0)" xlink:href="#J"/><use transform="matrix(0.04320987654320988,0,0,0.04320987654320988,22.425925925925934,0)" xlink:href="#K"/><use transform="matrix(0.04320987654320988,0,0,0.04320987654320988,27.567901234567906,0)" xlink:href="#L"/><use transform="matrix(0.04320987654320988,0,0,0.04320987654320988,31.888888888888893,0)" xlink:href="#M"/></g><g id="l"><use transform="matrix(0.04320987654320988,0,0,0.04320987654320988,0,0)" xlink:href="#U"/><use transform="matrix(0.04320987654320988,0,0,0.04320987654320988,7.734567901234567,0)" xlink:href="#J"/><use transform="matrix(0.04320987654320988,0,0,0.04320987654320988,16.376543209876544,0)" xlink:href="#V"/><use transform="matrix(0.04320987654320988,0,0,0.04320987654320988,24.154320987654323,0)" xlink:href="#L"/></g><g id="m"><use transform="matrix(0.04320987654320988,0,0,0.04320987654320988,0,0)" xlink:href="#O"/><use transform="matrix(0.04320987654320988,0,0,0.04320987654320988,10.370370370370372,0)" xlink:href="#J"/><use transform="matrix(0.04320987654320988,0,0,0.04320987654320988,19.01234567901235,0)" xlink:href="#L"/><use transform="matrix(0.04320987654320988,0,0,0.04320987654320988,23.333333333333336,0)" xlink:href="#L"/><use transform="matrix(0.04320987654320988,0,0,0.04320987654320988,27.654320987654323,0)" xlink:href="#R"/><use transform="matrix(0.04320987654320988,0,0,0.04320987654320988,31.067901234567906,0)" xlink:href="#T"/><use transform="matrix(0.04320987654320988,0,0,0.04320987654320988,39.70987654320988,0)" xlink:href="#Q"/><use transform="matrix(0.04320987654320988,0,0,0.04320987654320988,48.351851851851855,0)" xlink:href="#M"/></g></defs></g></svg>