<?xml version="1.0" encoding="iso-8859-1"?>
<!-- Generator: Adobe Illustrator 19.0.0, SVG Export Plug-In . SVG Version: 6.00 Build 0)  -->
<svg version="1.1" id="Capa_1" xmlns="http://www.w3.org/2000/svg" xmlns:xlink="http://www.w3.org/1999/xlink" x="0px" y="0px"
	 viewBox="0 0 512.014 512.014" style="enable-background:new 0 0 512.014 512.014;" xml:space="preserve">
<path style="fill:#87D2F3;" d="M362.673,458.68v32c0,5.891-4.776,10.667-10.667,10.667h-192c-5.891,0-10.667-4.776-10.667-10.667
	v-32H362.673z"/>
<path style="fill:#FFFFFF;" d="M320.007,373.347l10.667,85.333H181.34l10.667-85.333H320.007z"/>
<path style="fill:#87D2F3;" d="M448.007,256.014v32h-384v-32v-192h384V256.014z"/>
<path style="fill:#FFFFFF;" d="M501.34,32.014v256h-53.333v-224h-384v224H10.673v-256c0.035-11.767,9.566-21.298,21.333-21.333h448
	C491.774,10.715,501.305,20.246,501.34,32.014z"/>
<path style="fill:#87D2F3;" d="M501.34,288.014v64c-0.035,11.767-9.566,21.298-21.333,21.333h-448
	c-11.767-0.035-21.298-9.566-21.333-21.333v-64H501.34z"/>
<path style="fill:#FFFFFF;" d="M448.007,32.014v32h-384v-32c-0.244-11.538,8.911-21.089,20.449-21.333
	c0.295-0.006,0.589-0.006,0.884,0h341.333c11.538-0.244,21.089,8.911,21.333,20.449C448.013,31.424,448.013,31.719,448.007,32.014z"
	/>
<g>
	<path style="fill:#2170A6;" d="M202.673,96.014h21.333v21.333h-21.333V96.014z"/>
	<path style="fill:#2170A6;" d="M362.673,138.68h21.333v21.333h-21.333V138.68z"/>
	<path style="fill:#2170A6;" d="M245.34,96.014h21.333v21.333H245.34V96.014z"/>
	<path style="fill:#2170A6;" d="M288.007,181.347h21.333v21.333h-21.333V181.347z"/>
	<path style="fill:#2170A6;" d="M330.673,181.347h74.667v21.333h-74.667V181.347z"/>
	<path style="fill:#2170A6;" d="M288.007,96.014H405.34v21.333H288.007V96.014z"/>
	<path style="fill:#2170A6;" d="M202.673,138.68H341.34v21.333H202.673V138.68z"/>
	<path style="fill:#2170A6;" d="M362.673,224.014h21.333v21.333h-21.333V224.014z"/>
	<path style="fill:#2170A6;" d="M202.673,224.014H341.34v21.333H202.673V224.014z"/>
	<path style="fill:#2170A6;" d="M202.673,181.347h64v21.333h-64V181.347z"/>
	<path style="fill:#2170A6;" d="M42.673,277.347H469.34v21.333H42.673V277.347z"/>
	<path style="fill:#2170A6;" d="M480.007,0.014v21.333c5.891,0,10.667,4.776,10.667,10.667v320c0,5.891-4.776,10.667-10.667,10.667
		h-448c-5.891,0-10.667-4.776-10.667-10.667v-320c0-5.891,4.776-10.667,10.667-10.667V0.014c-17.673,0-32,14.327-32,32v320
		c0,17.673,14.327,32,32,32h147.915l-8,64H149.34c-5.891,0-10.667,4.776-10.667,10.667v32H117.34v21.333h277.333V490.68H373.34v-32
		c0-5.891-4.776-10.667-10.667-10.667h-22.581l-8-64h147.915c17.673,0,32-14.327,32-32v-320
		C512.007,14.34,497.68,0.014,480.007,0.014z M352.007,490.68h-192v-21.333h192V490.68z M318.588,448.014H193.425l8-64h109.163
		L318.588,448.014z"/>
	<path style="fill:#2170A6;" d="M74.673,74.68H437.34v181.333h21.333v-224c0.502-17.171-13.01-31.498-30.181-32
		c-0.606-0.018-1.213-0.018-1.819,0H85.34c-17.171-0.502-31.498,13.01-32,30.181c-0.018,0.606-0.018,1.213,0,1.819v224h21.333V74.68
		z M85.34,21.347h341.333c5.365-0.527,10.14,3.395,10.667,8.76c0.062,0.634,0.062,1.273,0,1.907v21.333H74.673V32.142
		c-0.572-5.384,3.329-10.211,8.713-10.783C84.035,21.29,84.69,21.286,85.34,21.347z"/>
	<path style="fill:#2170A6;" d="M160.007,96.014h21.333v160h-21.333V96.014z"/>
	<path style="fill:#2170A6;" d="M96.007,96.014h42.667v21.333H96.007V96.014z"/>
	<path style="fill:#2170A6;" d="M96.007,138.68h42.667v21.333H96.007V138.68z"/>
	<path style="fill:#2170A6;" d="M96.007,181.347h42.667v21.333H96.007V181.347z"/>
	<path style="fill:#2170A6;" d="M96.007,224.014h42.667v21.333H96.007V224.014z"/>
</g>
<g>
</g>
<g>
</g>
<g>
</g>
<g>
</g>
<g>
</g>
<g>
</g>
<g>
</g>
<g>
</g>
<g>
</g>
<g>
</g>
<g>
</g>
<g>
</g>
<g>
</g>
<g>
</g>
<g>
</g>
</svg>
