<svg id="Capa_1" enable-background="new 0 0 510 510" viewBox="0 0 510 510" xmlns="http://www.w3.org/2000/svg"><g><g id="XMLID_1857_"><path id="XMLID_1880_" d="m0 120v390h255l15-195-15-195-127.5-15z" fill="#e6f2ff"/><path id="XMLID_1876_" d="m510 120-127.5-15-127.5 15v390h255c0-11 0-379 0-390z" fill="#cdf"/><path id="XMLID_1873_" d="m0 0v120h255l15-60-15-60c-7.2 0-247.8 0-255 0z" fill="#474f54"/><path id="XMLID_1867_" d="m510 0h-75l-45 15-60-15h-75v120h75l60-15 45 15h75c0-14.5 0-105.4 0-120z" fill="#32393f"/><path id="XMLID_1861_" d="m135 315c0 66.3 53.7 120 120 120l15-120-15-120c-66.3 0-120 53.7-120 120z" fill="#4596e6"/><path id="XMLID_1854_" d="m375 315c0-66.3-53.7-120-120-120v240c66.3 0 120-53.7 120-120z" fill="#3e6dcc"/><path id="XMLID_1600_" d="m225.4 330h29.6l15-15-15-15c-10.4 0-19.3 0-29.6 0 2.9-59.2 21.7-90 29.6-90l15-15-15-15c-74.4 0-135 60.6-135 135s60.6 135 135 135l15-15-15-15c-7.8 0-26.7-30.3-29.6-90zm-74.3 0h44.3c1.2 26.3 5.7 56.1 15.9 80.4-31.9-14.6-55.1-44.7-60.2-80.4zm44.2-30c-14.1 0-30.2 0-44.3 0 5.1-35.7 28.3-65.8 60.2-80.4-10.2 24.4-14.7 54.2-15.9 80.4z" fill="#6cf"/><path id="XMLID_1645_" d="m390 315c0-74.4-60.6-135-135-135v30c1.5 0 5.9 2.3 11 11 12.4 20.8 17.4 54.8 18.6 79-10.4 0-19.3 0-29.6 0v30h29.6c-2.8 58.6-21.6 90-29.6 90v30c74.4 0 135-60.6 135-135zm-31.1-15c-14.1 0-30.2 0-44.3 0-1.2-26.3-5.7-56.1-15.9-80.4 31.9 14.6 55.1 44.7 60.2 80.4zm-60.2 110.4c10.2-24.4 14.7-54.2 15.9-80.4h44.3c-5.1 35.7-28.3 65.8-60.2 80.4z" fill="#4596e6"/><path id="XMLID_1830_" d="m420 390h30c0-10.1 0-139.9 0-150-10.5 0-19.5 0-30 0z" fill="#9bf"/><path id="XMLID_1832_" d="m90 390c-10.5 0-19.5 0-30 0 0-10.1 0-139.9 0-150h30z" fill="#cdf"/><path id="XMLID_1833_" d="m435 120c0-14.5 0-105.4 0-120-12.9 0-92.9 0-105.8 0v120z" fill="#e63950"/></g><path d="m420 180h30v30h-30z" fill="#9bf"/><path d="m60 180h30v30h-30z" fill="#cdf"/><path d="m60 45h30v30h-30z" fill="#ff637b"/><path d="m120 45h30v30h-30z" fill="#ffda2d"/><path d="m180 45h30v30h-30z" fill="#8bf2cf"/><path d="m420 420h30v30h-30z" fill="#9bf"/><path d="m60 420h30v30h-30z" fill="#cdf"/></g></svg>