<svg id="Capa_1" enable-background="new 0 0 510 510" height="512" viewBox="0 0 510 510" width="512" xmlns="http://www.w3.org/2000/svg"><g><g id="XMLID_4838_"><path id="XMLID_4958_" d="m0 60v300l127.5 15 127.5-15 15-45-15-45-165-210z" fill="#575f64"/><path id="XMLID_4957_" d="m510 60h-90l-165 210v90l127.5 15 127.5-15c0-16.7 0-283.3 0-300z" fill="#474f54"/><path id="XMLID_4953_" d="m30 90v270l112.5 15 112.5-15c0-10.9 0-79 0-90l-165-180z" fill="#474f54"/><path id="XMLID_4925_" d="m480 90h-60l-165 180v90l112.5 15 112.5-15c0-15 0-255 0-270z" fill="#32393f"/><path id="XMLID_4924_" d="m195 435v45l30 15 30-15 15-22.5-15-22.5-30-15z" fill="#474f54"/><path id="XMLID_4921_" d="m315 435-30-15-30 15v45h60c0-15 0-30 0-45z" fill="#32393f"/><path id="XMLID_4919_" d="m165 480v30h90l15-15-15-15c-10.9 0-79 0-90 0z" fill="#32393f"/><path id="XMLID_4918_" d="m345 480c-10.9 0-79 0-90 0v30h90c0-10.5 0-19.5 0-30z" fill="#23292d"/><path id="XMLID_4917_" d="m90 0v240l82.5 15 82.5-15 15-120-15-120c-4.7 0-160.3 0-165 0z" fill="#e6f2ff"/><path id="XMLID_4916_" d="m420 0c-4.7 0-160.3 0-165 0v240l82.5 15 82.5-15c0-6.8 0-233.2 0-240z" fill="#cdf"/><path id="XMLID_4915_" d="m90 240v30h165l15-15-15-15c-4.7 0-160.3 0-165 0z" fill="#cdf"/><path id="XMLID_4913_" d="m420 240c-4.7 0-160.3 0-165 0v30h165c0-10.5 0-19.5 0-30z" fill="#9bf"/><path id="XMLID_4903_" d="m0 360v75h255l15-37.5-15-37.5c-7.2 0-247.8 0-255 0z" fill="#32393f"/><path id="XMLID_4894_" d="m510 360c-7.2 0-247.8 0-255 0v75h135l15-15 15 15h30l15-15 15 15h30c0-20.2 0-63.2 0-75z" fill="#23292d"/><path id="XMLID_4854_" d="m135 60v30h120l15-15-15-15c-14.5 0-105.4 0-120 0z" fill="#6cf"/><path id="XMLID_4683_" d="m315 60c-7.3 0-52.7 0-60 0v30h60c0-10.5 0-19.5 0-30z" fill="#4596e6"/><path id="XMLID_4681_" d="m135 120v30h120l15-15-15-15c-14.5 0-105.4 0-120 0z" fill="#6cf"/><path id="XMLID_3657_" d="m315 120c-7.3 0-52.7 0-60 0v30h60c0-10.5 0-19.5 0-30z" fill="#4596e6"/><path id="XMLID_3616_" d="m135 180v30h120l15-15-15-15c-14.5 0-105.4 0-120 0z" fill="#6cf"/><path id="XMLID_3615_" d="m315 180c-7.3 0-52.7 0-60 0v30h60c0-10.5 0-19.5 0-30z" fill="#4596e6"/></g><path d="m390 405h30v30h-30z" fill="#fdbf00"/><path d="m450 405h30v30h-30z" fill="#e63950"/><path d="m345 120h30v30h-30z" fill="#fdbf00" transform="matrix(0 -1 1 0 225 495)"/><path d="m345 60h30v30h-30z" fill="#e63950" transform="matrix(0 -1 1 0 285 435)"/><path d="m345 180h30v30h-30z" fill="#57d9d4" transform="matrix(0 -1 1 0 165 555)"/></g></svg>