<svg viewBox="0 -3 512.00099 512" xmlns="http://www.w3.org/2000/svg"><path d="m475.75 505.707031h-439.5c-20.019531 0-36.25-16.230469-36.25-36.253906v-12.757813c0-1.90625 1.542969-3.449218 3.449219-3.449218h505.101562c1.90625 0 3.449219 1.542968 3.449219 3.449218v12.757813c0 20.023437-16.230469 36.253906-36.25 36.253906zm0 0" fill="#bec8dc"/><path d="m508.550781 453.246094h-55.792969c1.902344 0 3.449219 1.542968 3.449219 3.449218v12.757813c0 20.023437-16.230469 36.253906-36.253906 36.253906h55.796875c20.019531 0 36.25-16.230469 36.25-36.253906v-12.757813c0-1.90625-1.542969-3.449218-3.449219-3.449218zm0 0" fill="#afbbd0"/><path d="m277.292969 479.167969h-42.585938c-14.316406 0-25.921875-11.605469-25.921875-25.921875h94.425782c.003906 14.316406-11.601563 25.921875-25.917969 25.921875zm0 0" fill="#95a5b9"/><path d="m488.917969 453.246094h-465.835938v-269.875c0-24.207032 19.621094-43.828125 43.828125-43.828125h378.179688c24.207031 0 43.828125 19.621093 43.828125 43.828125zm0 0" fill="#5b5c6c"/><path d="m456.207031 12.359375c0-6.828125-5.542969-12.359375-12.359375-12.359375h-375.691406c-6.820312 0-12.359375 5.53125-12.359375 12.359375v339.347656h.003906v57.707031c0 6.824219 5.53125 12.359376 12.355469 12.359376h375.6875c6.824219 0 12.355469-5.535157 12.355469-12.359376v-57.707031h.003906v-339.347656zm0 0" fill="#ffcd74"/><path d="m456.207031 12.359375v397.050781c0 6.832032-5.542969 12.359375-12.359375 12.359375h-47.214844c6.820313 0 12.359376-5.527343 12.359376-12.359375v-397.050781c0-6.828125-5.539063-12.359375-12.359376-12.359375h47.214844c6.816406 0 12.359375 5.53125 12.359375 12.359375zm0 0" fill="#ffb96a"/><path d="m456.207031 12.359375v47.925781l-.335937.042969h-398.691406l-1.382813-.703125v-47.265625c0-6.828125 5.539063-12.359375 12.359375-12.359375h375.6875c6.820312 0 12.363281 5.53125 12.363281 12.359375zm0 0" fill="#ff8d95"/><path d="m456.207031 12.359375v47.925781l-.335937.042969h-46.878906v-47.96875c0-6.828125-5.539063-12.359375-12.359376-12.359375h47.214844c6.816406 0 12.359375 5.53125 12.359375 12.359375zm0 0" fill="#ff6469"/><g fill="#fff"><path d="m95.476562 33.050781c0 4.34375-3.523437 7.867188-7.871093 7.867188-4.34375 0-7.867188-3.523438-7.867188-7.867188 0-4.347656 3.523438-7.871093 7.867188-7.871093 4.347656 0 7.871093 3.523437 7.871093 7.871093zm0 0"/><path d="m123.804688 33.050781c0 4.34375-3.523438 7.867188-7.871094 7.867188-4.34375 0-7.867188-3.523438-7.867188-7.867188 0-4.347656 3.523438-7.871093 7.867188-7.871093 4.347656 0 7.871094 3.523437 7.871094 7.871093zm0 0"/><path d="m152.132812 33.050781c0 4.34375-3.523437 7.867188-7.871093 7.867188-4.34375 0-7.867188-3.523438-7.867188-7.867188 0-4.347656 3.523438-7.871093 7.867188-7.871093 4.347656 0 7.871093 3.523437 7.871093 7.871093zm0 0"/></g><path d="m324.460938 122.230469h-236.59375c-1.882813 0-3.410157-1.527344-3.410157-3.410157v-24.65625c0-1.882812 1.527344-3.410156 3.410157-3.410156h236.59375c1.882812 0 3.410156 1.527344 3.410156 3.410156v24.65625c-.003906 1.882813-1.527344 3.410157-3.410156 3.410157zm0 0" fill="#fff4ac"/><path d="m422.335938 122.230469h-58.835938c-1.714844 0-3.105469-1.390625-3.105469-3.105469v-25.265625c0-1.714844 1.390625-3.105469 3.105469-3.105469h58.835938c1.714843 0 3.105468 1.390625 3.105468 3.105469v25.265625c.003906 1.714844-1.390625 3.105469-3.105468 3.105469zm0 0" fill="#54a1ff"/><path d="m425.445312 93.859375v25.265625c0 1.710938-1.398437 3.105469-3.105468 3.105469h-13.347656v-31.476563h13.347656c1.707031 0 3.105468 1.394532 3.105468 3.105469zm0 0" fill="#4a7fdd"/><path d="m231.867188 314.230469c-2.011719 0-4.027344-.769531-5.5625-2.304688l-43.59375-43.59375c-5.929688-5.929687-5.929688-15.582031 0-21.515625l44.644531-44.640625c3.070312-3.074219 8.054687-3.074219 11.128906 0 3.070313 3.070313 3.070313 8.054688 0 11.128907l-44.273437 44.269531 43.222656 43.222656c3.074218 3.074219 3.074218 8.058594 0 11.128906-1.535156 1.535157-3.550782 2.304688-5.566406 2.304688zm0 0" fill="#54a1ff"/><path d="m280.550781 314.230469c-2.011719 0-4.027343-.769531-5.5625-2.304688-3.074219-3.074219-3.074219-8.054687 0-11.128906l43.222657-43.222656-44.273438-44.273438c-3.070312-3.070312-3.070312-8.054687 0-11.125 3.074219-3.074219 8.058594-3.074219 11.128906 0l44.644532 44.640625c5.929687 5.929688 5.929687 15.582032 0 21.515625l-43.59375 43.59375c-1.539063 1.535157-3.550782 2.304688-5.566407 2.304688zm38.027344-56.285157h.011719zm0 0" fill="#54a1ff"/></svg>