<?xml version="1.0" encoding="UTF-8"?>
<svg xmlns="http://www.w3.org/2000/svg" xmlns:xlink="http://www.w3.org/1999/xlink" width="48pt" height="48pt" viewBox="0 0 48 48" version="1.1">
<g id="surface1">
<path style=" stroke:none;fill-rule:nonzero;fill:rgb(0%,53.333333%,80%);fill-opacity:1;" d="M 47.039062 9.601562 C 47.039062 11.191406 45.75 12.480469 44.160156 12.480469 L 24 12.480469 C 22.410156 12.480469 21.121094 11.191406 21.121094 9.601562 C 21.121094 8.007812 22.410156 6.71875 24 6.71875 L 44.160156 6.71875 C 45.75 6.71875 47.039062 8.007812 47.039062 9.601562 Z M 5.40625 14.515625 C 6.527344 15.636719 8.351562 15.636719 9.476562 14.515625 L 16.675781 7.316406 C 17.785156 6.1875 17.777344 4.378906 16.660156 3.257812 C 15.542969 2.140625 13.734375 2.132812 12.605469 3.238281 L 7.441406 8.40625 L 5.875 6.839844 C 4.746094 5.730469 2.9375 5.738281 1.820312 6.859375 C 0.703125 7.976562 0.695312 9.789062 1.804688 10.914062 Z M 44.160156 21.839844 L 24 21.839844 C 22.410156 21.839844 21.121094 23.128906 21.121094 24.71875 C 21.121094 26.3125 22.410156 27.601562 24 27.601562 L 44.160156 27.601562 C 45.75 27.601562 47.039062 26.3125 47.039062 24.71875 C 47.039062 23.128906 45.75 21.839844 44.160156 21.839844 Z M 5.40625 29.636719 C 6.527344 30.757812 8.351562 30.757812 9.476562 29.636719 L 16.675781 22.433594 C 17.414062 21.710938 17.707031 20.644531 17.441406 19.644531 C 17.175781 18.644531 16.394531 17.863281 15.394531 17.597656 C 14.394531 17.332031 13.332031 17.621094 12.605469 18.359375 L 7.441406 23.519531 L 5.875 21.957031 C 5.148438 21.21875 4.082031 20.925781 3.082031 21.191406 C 2.085938 21.457031 1.304688 22.238281 1.039062 23.238281 C 0.773438 24.238281 1.066406 25.304688 1.804688 26.03125 Z M 44.160156 36.960938 L 24 36.960938 C 22.410156 36.960938 21.121094 38.25 21.121094 39.839844 C 21.121094 41.429688 22.410156 42.71875 24 42.71875 L 44.160156 42.71875 C 45.75 42.71875 47.039062 41.429688 47.039062 39.839844 C 47.039062 38.25 45.75 36.960938 44.160156 36.960938 Z M 7.441406 45.601562 C 8.203125 45.597656 8.9375 45.296875 9.476562 44.753906 L 16.675781 37.554688 C 17.785156 36.429688 17.777344 34.617188 16.660156 33.5 C 15.542969 32.378906 13.734375 32.371094 12.605469 33.480469 L 7.441406 38.644531 L 5.875 37.078125 C 4.746094 35.972656 2.9375 35.980469 1.820312 37.097656 C 0.703125 38.21875 0.695312 40.027344 1.804688 41.15625 L 5.40625 44.753906 C 5.945312 45.296875 6.675781 45.597656 7.441406 45.601562 Z M 7.441406 45.601562 "/>
</g>
</svg>
