<?xml version="1.0" encoding="UTF-8"?>
<svg xmlns="http://www.w3.org/2000/svg" xmlns:xlink="http://www.w3.org/1999/xlink" width="24pt" height="24pt" viewBox="0 0 24 24" version="1.1">
<g id="surface1">
<path style=" stroke:none;fill-rule:nonzero;fill:rgb(0%,53.333333%,80%);fill-opacity:1;" d="M 23.519531 4.800781 C 23.519531 5.59375 22.875 6.238281 22.078125 6.238281 L 12 6.238281 C 11.203125 6.238281 10.558594 5.59375 10.558594 4.800781 C 10.558594 4.003906 11.203125 3.359375 12 3.359375 L 22.078125 3.359375 C 22.875 3.359375 23.519531 4.003906 23.519531 4.800781 Z M 2.703125 7.257812 C 3.265625 7.820312 4.175781 7.820312 4.738281 7.257812 L 8.335938 3.65625 C 8.890625 3.09375 8.890625 2.1875 8.332031 1.628906 C 7.773438 1.070312 6.867188 1.066406 6.300781 1.621094 L 3.71875 4.203125 L 2.9375 3.421875 C 2.375 2.867188 1.46875 2.871094 0.910156 3.429688 C 0.351562 3.988281 0.347656 4.894531 0.902344 5.457031 Z M 22.078125 10.921875 L 12 10.921875 C 11.203125 10.921875 10.558594 11.566406 10.558594 12.359375 C 10.558594 13.15625 11.203125 13.800781 12 13.800781 L 22.078125 13.800781 C 22.875 13.800781 23.519531 13.15625 23.519531 12.359375 C 23.519531 11.566406 22.875 10.921875 22.078125 10.921875 Z M 2.703125 14.816406 C 3.265625 15.378906 4.175781 15.378906 4.738281 14.816406 L 8.335938 11.21875 C 8.707031 10.855469 8.851562 10.324219 8.71875 9.824219 C 8.589844 9.324219 8.199219 8.929688 7.699219 8.796875 C 7.199219 8.664062 6.664062 8.8125 6.300781 9.179688 L 3.71875 11.761719 L 2.9375 10.976562 C 2.574219 10.609375 2.042969 10.464844 1.542969 10.597656 C 1.042969 10.730469 0.652344 11.121094 0.519531 11.621094 C 0.386719 12.121094 0.535156 12.652344 0.902344 13.015625 Z M 22.078125 18.480469 L 12 18.480469 C 11.203125 18.480469 10.558594 19.125 10.558594 19.921875 C 10.558594 20.714844 11.203125 21.359375 12 21.359375 L 22.078125 21.359375 C 22.875 21.359375 23.519531 20.714844 23.519531 19.921875 C 23.519531 19.125 22.875 18.480469 22.078125 18.480469 Z M 3.71875 22.800781 C 4.101562 22.800781 4.46875 22.648438 4.738281 22.378906 L 8.335938 18.777344 C 8.890625 18.214844 8.890625 17.308594 8.332031 16.75 C 7.773438 16.191406 6.867188 16.1875 6.300781 16.738281 L 3.71875 19.324219 L 2.9375 18.539062 C 2.375 17.984375 1.46875 17.988281 0.910156 18.550781 C 0.351562 19.109375 0.347656 20.015625 0.902344 20.578125 L 2.703125 22.378906 C 2.972656 22.648438 3.339844 22.800781 3.71875 22.800781 Z M 3.71875 22.800781 "/>
</g>
</svg>
